<mxfile host="www.draw.io" modified="2019-12-15T13:56:54.745Z" agent="Mozilla/5.0 (Windows NT 10.0; Win64; x64) AppleWebKit/537.36 (KHTML, like Gecko) Chrome/78.0.3904.108 Safari/537.36" etag="4Eewclm3ENdhDyJVycjy" version="12.4.2" type="github" pages="1">
  <diagram id="tWcg9DptwFrXNevLJOua" name="第 1 页">
    <mxGraphModel dx="981" dy="514" grid="1" gridSize="10" guides="1" tooltips="1" connect="1" arrows="1" fold="1" page="1" pageScale="1" pageWidth="827" pageHeight="1169" math="0" shadow="0">
      <root>
        <mxCell id="0"/>
        <mxCell id="1" parent="0"/>
        <mxCell id="Ses-P-s8ahZ7sSAwyYf3-9" value="" style="rounded=1;whiteSpace=wrap;html=1;fillColor=#f8cecc;strokeColor=#b85450;" vertex="1" parent="1">
          <mxGeometry x="30" y="160" width="160" height="310" as="geometry"/>
        </mxCell>
        <mxCell id="Ses-P-s8ahZ7sSAwyYf3-1" value="&lt;font color=&quot;#ffffff&quot; style=&quot;font-size: 16px&quot;&gt;战斗逻辑&lt;/font&gt;" style="rounded=1;whiteSpace=wrap;html=1;fillColor=#B85450;strokeColor=none;" vertex="1" parent="1">
          <mxGeometry x="50" y="360" width="120" height="60" as="geometry"/>
        </mxCell>
        <mxCell id="Ses-P-s8ahZ7sSAwyYf3-2" value="&lt;font color=&quot;#ffffff&quot; style=&quot;font-size: 16px&quot;&gt;战斗网络层&lt;/font&gt;" style="rounded=1;whiteSpace=wrap;html=1;fillColor=#B85450;strokeColor=none;" vertex="1" parent="1">
          <mxGeometry x="50" y="270" width="120" height="60" as="geometry"/>
        </mxCell>
        <mxCell id="Ses-P-s8ahZ7sSAwyYf3-3" value="&lt;font color=&quot;#ffffff&quot; style=&quot;font-size: 16px&quot;&gt;录像刻录器&lt;/font&gt;" style="rounded=1;whiteSpace=wrap;html=1;fillColor=#B85450;strokeColor=none;" vertex="1" parent="1">
          <mxGeometry x="50" y="180" width="120" height="60" as="geometry"/>
        </mxCell>
        <mxCell id="Ses-P-s8ahZ7sSAwyYf3-4" value="&lt;font color=&quot;#ffffff&quot;&gt;&lt;font style=&quot;font-size: 11px&quot;&gt;ProtoBuf格式&lt;/font&gt;&lt;br&gt;&lt;span style=&quot;font-size: 16px&quot;&gt;录像文件&lt;/span&gt;&lt;/font&gt;" style="rounded=1;whiteSpace=wrap;html=1;fillColor=#666666;strokeColor=#666666;fontColor=#333333;" vertex="1" parent="1">
          <mxGeometry x="280" y="180" width="120" height="60" as="geometry"/>
        </mxCell>
        <mxCell id="Ses-P-s8ahZ7sSAwyYf3-10" value="&lt;font style=&quot;font-size: 18px&quot; color=&quot;#b85450&quot;&gt;出现BUG&lt;/font&gt;" style="text;html=1;strokeColor=none;fillColor=none;align=center;verticalAlign=middle;whiteSpace=wrap;rounded=0;" vertex="1" parent="1">
          <mxGeometry x="65" y="430" width="90" height="30" as="geometry"/>
        </mxCell>
        <mxCell id="Ses-P-s8ahZ7sSAwyYf3-24" value="&lt;font color=&quot;#666666&quot;&gt;&lt;span style=&quot;font-size: 16px&quot;&gt;战斗概要信息&lt;/span&gt;&lt;/font&gt;" style="rounded=1;whiteSpace=wrap;html=1;fillColor=#f5f5f5;strokeColor=#666666;fontColor=#333333;" vertex="1" parent="1">
          <mxGeometry x="280" y="290" width="120" height="30" as="geometry"/>
        </mxCell>
        <mxCell id="Ses-P-s8ahZ7sSAwyYf3-26" value="&lt;font color=&quot;#666666&quot;&gt;&lt;span style=&quot;font-size: 16px&quot;&gt;客户端设备信息&lt;/span&gt;&lt;/font&gt;" style="rounded=1;whiteSpace=wrap;html=1;fillColor=#f5f5f5;strokeColor=#666666;fontColor=#333333;" vertex="1" parent="1">
          <mxGeometry x="280" y="250" width="120" height="30" as="geometry"/>
        </mxCell>
        <mxCell id="Ses-P-s8ahZ7sSAwyYf3-27" value="&lt;font color=&quot;#666666&quot;&gt;&lt;span style=&quot;font-size: 16px&quot;&gt;战斗包时间戳&lt;/span&gt;&lt;/font&gt;" style="rounded=1;whiteSpace=wrap;html=1;fillColor=#f5f5f5;strokeColor=#666666;fontColor=#333333;" vertex="1" parent="1">
          <mxGeometry x="280" y="330" width="120" height="30" as="geometry"/>
        </mxCell>
        <mxCell id="Ses-P-s8ahZ7sSAwyYf3-29" value="&lt;font color=&quot;#666666&quot;&gt;&lt;span style=&quot;font-size: 16px&quot;&gt;战斗包数据&lt;/span&gt;&lt;/font&gt;" style="rounded=1;whiteSpace=wrap;html=1;fillColor=#f5f5f5;strokeColor=#666666;fontColor=#333333;" vertex="1" parent="1">
          <mxGeometry x="280" y="370" width="120" height="30" as="geometry"/>
        </mxCell>
        <mxCell id="Ses-P-s8ahZ7sSAwyYf3-37" value="" style="group" vertex="1" connectable="0" parent="1">
          <mxGeometry x="190" y="200" width="90" height="30" as="geometry"/>
        </mxCell>
        <mxCell id="Ses-P-s8ahZ7sSAwyYf3-22" value="" style="shape=flexArrow;endArrow=classic;html=1;fillColor=#f5f5f5;strokeColor=#666666;endWidth=22.777777777777775;endSize=7.533333333333333;width=36.66666666666667;" edge="1" parent="Ses-P-s8ahZ7sSAwyYf3-37">
          <mxGeometry width="50" height="50" relative="1" as="geometry">
            <mxPoint x="5" y="14.580000000000013" as="sourcePoint"/>
            <mxPoint x="85" y="14.869999999999976" as="targetPoint"/>
          </mxGeometry>
        </mxCell>
        <mxCell id="Ses-P-s8ahZ7sSAwyYf3-33" value="&lt;font style=&quot;font-size: 14px&quot; color=&quot;#666666&quot;&gt;逻辑校验&lt;/font&gt;" style="text;html=1;strokeColor=none;fillColor=none;align=center;verticalAlign=middle;whiteSpace=wrap;rounded=0;" vertex="1" parent="Ses-P-s8ahZ7sSAwyYf3-37">
          <mxGeometry width="90" height="30" as="geometry"/>
        </mxCell>
        <mxCell id="Ses-P-s8ahZ7sSAwyYf3-38" value="" style="group" vertex="1" connectable="0" parent="1">
          <mxGeometry x="490" y="160" width="160" height="310" as="geometry"/>
        </mxCell>
        <mxCell id="Ses-P-s8ahZ7sSAwyYf3-14" value="" style="rounded=1;whiteSpace=wrap;html=1;fillColor=#dae8fc;strokeColor=#6c8ebf;" vertex="1" parent="Ses-P-s8ahZ7sSAwyYf3-38">
          <mxGeometry width="160" height="310" as="geometry"/>
        </mxCell>
        <mxCell id="Ses-P-s8ahZ7sSAwyYf3-5" value="&lt;font color=&quot;#ffffff&quot;&gt;&lt;span style=&quot;font-size: 16px&quot;&gt;录像播放器&lt;/span&gt;&lt;/font&gt;" style="rounded=1;whiteSpace=wrap;html=1;fillColor=#6C8EBF;strokeColor=none;" vertex="1" parent="Ses-P-s8ahZ7sSAwyYf3-38">
          <mxGeometry x="20" y="20" width="120" height="60" as="geometry"/>
        </mxCell>
        <mxCell id="Ses-P-s8ahZ7sSAwyYf3-8" value="&lt;font color=&quot;#ffffff&quot;&gt;&lt;span style=&quot;font-size: 16px&quot;&gt;战斗网络层&lt;/span&gt;&lt;/font&gt;" style="rounded=1;whiteSpace=wrap;html=1;fillColor=#6C8EBF;strokeColor=none;" vertex="1" parent="Ses-P-s8ahZ7sSAwyYf3-38">
          <mxGeometry x="20" y="110" width="120" height="60" as="geometry"/>
        </mxCell>
        <mxCell id="Ses-P-s8ahZ7sSAwyYf3-15" value="&lt;font style=&quot;font-size: 18px&quot; color=&quot;#6c8ebf&quot;&gt;复现BUG&lt;/font&gt;" style="text;html=1;strokeColor=none;fillColor=none;align=center;verticalAlign=middle;whiteSpace=wrap;rounded=0;" vertex="1" parent="Ses-P-s8ahZ7sSAwyYf3-38">
          <mxGeometry x="35" y="270" width="90" height="30" as="geometry"/>
        </mxCell>
        <mxCell id="Ses-P-s8ahZ7sSAwyYf3-16" value="&lt;font color=&quot;#ffffff&quot;&gt;&lt;span style=&quot;font-size: 16px&quot;&gt;战斗逻辑&lt;/span&gt;&lt;/font&gt;" style="rounded=1;whiteSpace=wrap;html=1;fillColor=#6C8EBF;strokeColor=none;" vertex="1" parent="Ses-P-s8ahZ7sSAwyYf3-38">
          <mxGeometry x="20" y="200" width="120" height="60" as="geometry"/>
        </mxCell>
        <mxCell id="Ses-P-s8ahZ7sSAwyYf3-50" value="" style="shape=flexArrow;endArrow=classic;html=1;fillColor=#f5f5f5;strokeColor=#666666;width=14.8;endSize=3.068;endWidth=16.880000000000003;" edge="1" parent="Ses-P-s8ahZ7sSAwyYf3-38">
          <mxGeometry width="50" height="50" relative="1" as="geometry">
            <mxPoint x="79.89999999999998" y="86" as="sourcePoint"/>
            <mxPoint x="79.89999999999998" y="106" as="targetPoint"/>
          </mxGeometry>
        </mxCell>
        <mxCell id="Ses-P-s8ahZ7sSAwyYf3-51" value="" style="shape=flexArrow;endArrow=classic;html=1;fillColor=#f5f5f5;strokeColor=#666666;width=14.8;endSize=3.068;endWidth=16.880000000000003;" edge="1" parent="Ses-P-s8ahZ7sSAwyYf3-38">
          <mxGeometry width="50" height="50" relative="1" as="geometry">
            <mxPoint x="79.89999999999998" y="175" as="sourcePoint"/>
            <mxPoint x="79.89999999999998" y="194.99999999999994" as="targetPoint"/>
          </mxGeometry>
        </mxCell>
        <mxCell id="Ses-P-s8ahZ7sSAwyYf3-39" value="" style="group" vertex="1" connectable="0" parent="1">
          <mxGeometry x="400" y="200" width="90" height="30" as="geometry"/>
        </mxCell>
        <mxCell id="Ses-P-s8ahZ7sSAwyYf3-40" value="" style="shape=flexArrow;endArrow=classic;html=1;fillColor=#f5f5f5;strokeColor=#666666;endWidth=22.777777777777775;endSize=7.533333333333333;width=36.66666666666667;" edge="1" parent="Ses-P-s8ahZ7sSAwyYf3-39">
          <mxGeometry width="50" height="50" relative="1" as="geometry">
            <mxPoint x="5" y="14.580000000000013" as="sourcePoint"/>
            <mxPoint x="85" y="14.869999999999976" as="targetPoint"/>
          </mxGeometry>
        </mxCell>
        <mxCell id="Ses-P-s8ahZ7sSAwyYf3-41" value="&lt;font style=&quot;font-size: 14px&quot; color=&quot;#666666&quot;&gt;MD5校验&lt;/font&gt;" style="text;html=1;strokeColor=none;fillColor=none;align=center;verticalAlign=middle;whiteSpace=wrap;rounded=0;" vertex="1" parent="Ses-P-s8ahZ7sSAwyYf3-39">
          <mxGeometry width="90" height="30" as="geometry"/>
        </mxCell>
        <mxCell id="Ses-P-s8ahZ7sSAwyYf3-47" value="" style="shape=flexArrow;endArrow=classic;html=1;fillColor=#f5f5f5;strokeColor=#666666;width=14.8;endSize=3.068;endWidth=16.880000000000003;" edge="1" parent="1">
          <mxGeometry width="50" height="50" relative="1" as="geometry">
            <mxPoint x="109.89999999999999" y="264" as="sourcePoint"/>
            <mxPoint x="109.89999999999999" y="244" as="targetPoint"/>
          </mxGeometry>
        </mxCell>
        <mxCell id="Ses-P-s8ahZ7sSAwyYf3-48" value="" style="shape=flexArrow;endArrow=classic;html=1;fillColor=#f5f5f5;strokeColor=#666666;width=14.8;endSize=3.068;endWidth=16.880000000000003;" edge="1" parent="1">
          <mxGeometry width="50" height="50" relative="1" as="geometry">
            <mxPoint x="109.8" y="355" as="sourcePoint"/>
            <mxPoint x="109.8" y="335" as="targetPoint"/>
          </mxGeometry>
        </mxCell>
      </root>
    </mxGraphModel>
  </diagram>
</mxfile>
